<svg xmlns="http://www.w3.org/2000/svg" viewBox="0 0 120 120" width="120" height="120">
  <!-- Trophy cup body -->
  <path d="M40 35 Q40 28 48 25 L72 25 Q80 28 80 35 L76 65 Q76 75 60 80 Q44 75 44 65 Z" fill="#8BA888" opacity="0.85"/>
  <!-- Trophy shine -->
  <path d="M50 30 Q50 28 55 27 L62 27 Q64 28 64 30 L62 50 Q62 55 58 56 Q52 55 52 50 Z" fill="#A8C4A0" opacity="0.5"/>
  <!-- Left handle -->
  <path d="M40 38 Q28 38 26 48 Q25 58 36 60" fill="none" stroke="#8BA888" stroke-width="4" stroke-linecap="round" opacity="0.7"/>
  <!-- Right handle -->
  <path d="M80 38 Q92 38 94 48 Q95 58 84 60" fill="none" stroke="#8BA888" stroke-width="4" stroke-linecap="round" opacity="0.7"/>
  <!-- Trophy base stem -->
  <rect x="54" y="80" width="12" height="10" rx="2" fill="#B8A082" opacity="0.7"/>
  <!-- Trophy base -->
  <rect x="42" y="88" width="36" height="8" rx="4" fill="#B8A082" opacity="0.6"/>
  <!-- Star decoration -->
  <path d="M60 42 L63 51 L72 51 L65 57 L67 66 L60 61 L53 66 L55 57 L48 51 L57 51 Z" fill="#D4B896" opacity="0.8"/>
</svg>
